<svg width="200" height="200" viewBox="0 0 200 200" fill="none" xmlns="http://www.w3.org/2000/svg">
  <path d="M134 157L94.5 117L119 102.5L114.5 82.5H164.5L167 117L134 157Z" fill="white" />
  <path
    d="M88.3356 111.667L140.836 162.501C143.336 166.667 141.669 171.667 137.502 174.167C125.836 180.001 113.336 183.334 100.002 183.334C95.6061 183.271 91.4128 181.474 88.3356 178.334L21.6689 111.667C18.5287 108.59 16.7316 104.397 16.6689 100.001C16.6679 80.3166 23.6347 61.2675 36.335 46.2288C49.0354 31.19 66.6492 21.1324 86.0557 17.8381C105.462 14.5438 125.408 18.2254 142.36 28.2307C159.312 38.236 172.174 53.9189 178.669 72.5007C181.169 78.334 176.169 83.334 170.336 83.334H100.002"
    fill="#000" />
  <path
    d="M88.3356 111.667L140.836 162.501C143.336 166.667 141.669 171.667 137.502 174.167C125.836 180.001 113.336 183.334 100.002 183.334C95.6061 183.271 91.4128 181.474 88.3356 178.334L21.6689 111.667C18.5287 108.59 16.7316 104.397 16.6689 100.001C16.6679 80.3166 23.6347 61.2675 36.335 46.2288C49.0354 31.19 66.6492 21.1324 86.0557 17.8381C105.462 14.5438 125.408 18.2254 142.36 28.2307C159.312 38.236 172.174 53.9189 178.669 72.5007C181.169 78.334 176.169 83.334 170.336 83.334H100.002"
    stroke="#F0DB4F" stroke-width="10" stroke-linecap="round" stroke-linejoin="round" />
  <path
    d="M100.005 116.668C109.209 116.668 116.671 109.206 116.671 100.001C116.671 90.7964 109.209 83.3345 100.005 83.3345C90.7998 83.3345 83.3379 90.7964 83.3379 100.001C83.3379 109.206 90.7998 116.668 100.005 116.668Z"
    fill="#000" stroke="#F0DB4F" stroke-width="10" stroke-linecap="round" stroke-linejoin="round" />
  <path d="M135.004 156.668C160.004 140.834 171.671 110.834 164.171 83.3345" stroke="#F0DB4F" stroke-width="10"
    stroke-linecap="round" stroke-linejoin="round" />
  <path
    d="M14.658 121.174L16.3324 122.849L15.2689 123.912L15.3481 123.991C15.8384 123.788 16.3324 123.709 16.8302 123.754C17.328 123.799 17.8107 124.055 18.2784 124.523C18.6027 124.847 18.8365 125.202 18.9798 125.587C19.1307 125.979 19.1759 126.394 19.1156 126.831C19.0628 127.276 18.8969 127.744 18.6178 128.234C18.3463 128.732 17.9465 129.245 17.4185 129.773C16.8906 130.301 16.3777 130.7 15.8799 130.972C15.3896 131.251 14.922 131.417 14.477 131.47C14.0395 131.53 13.6247 131.485 13.2325 131.334C12.8478 131.191 12.4933 130.957 12.169 130.633C11.7013 130.165 11.4411 129.686 11.3883 129.196C11.3431 128.698 11.426 128.2 11.6372 127.702L11.558 127.623L8.23181 130.949L6.55738 129.275L14.658 121.174ZM12.746 128.607C13.1231 128.984 13.5266 129.162 13.9565 129.139C14.394 129.109 14.8164 128.89 15.2237 128.483L16.1288 127.578C16.5361 127.171 16.751 126.752 16.7737 126.322C16.8038 125.885 16.6303 125.477 16.2532 125.1C15.9591 124.806 15.631 124.621 15.2689 124.546C14.9144 124.478 14.5826 124.599 14.2733 124.908L12.5536 126.627C12.2444 126.937 12.1237 127.269 12.1916 127.623C12.267 127.985 12.4518 128.313 12.746 128.607ZM17.0747 132.665L18.421 134.011L21.6568 130.775L20.3104 129.429L21.6115 128.128L24.6323 131.149L22.9805 132.8L23.0597 132.88C23.3236 132.721 23.5989 132.589 23.8856 132.484C24.1873 132.378 24.4852 132.321 24.7793 132.314C25.0886 132.306 25.3941 132.363 25.6958 132.484C25.9975 132.604 26.2916 132.808 26.5782 133.094L27.1326 133.649L25.5939 135.188L24.3494 133.943C23.9346 133.528 23.4971 133.34 23.037 133.377C22.5845 133.408 22.181 133.6 21.8265 133.954L20.0955 135.685L22.0188 137.609L20.7177 138.91L15.7736 133.966L17.0747 132.665ZM24.9786 143.442C24.526 142.99 24.1866 142.514 23.9603 142.017C23.7416 141.511 23.636 140.998 23.6436 140.478C23.6586 139.965 23.7869 139.452 24.0282 138.939C24.2696 138.426 24.6278 137.932 25.103 137.457C25.5782 136.982 26.0722 136.624 26.5851 136.382C27.098 136.141 27.6109 136.013 28.1238 135.998C28.6442 135.99 29.1533 136.1 29.6511 136.326C30.1565 136.545 30.6354 136.88 31.088 137.333C31.5405 137.785 31.8762 138.264 32.0949 138.77C32.3212 139.267 32.4268 139.773 32.4117 140.286C32.4041 140.806 32.2797 141.323 32.0383 141.836C31.797 142.348 31.4387 142.842 30.9635 143.318C30.4883 143.793 29.9943 144.151 29.4814 144.392C28.9685 144.634 28.4519 144.758 27.9314 144.766C27.4186 144.781 26.9094 144.679 26.4041 144.46C25.9063 144.234 25.4311 143.895 24.9786 143.442ZM26.2231 142.198C26.6002 142.575 27.0113 142.752 27.4563 142.729C27.9013 142.707 28.3387 142.48 28.7687 142.051L29.6964 141.123C30.1263 140.693 30.3526 140.255 30.3752 139.81C30.3978 139.365 30.2206 138.954 29.8435 138.577C29.4663 138.2 29.0553 138.023 28.6103 138.045C28.1653 138.068 27.7278 138.294 27.2979 138.724L26.3702 139.652C25.9402 140.082 25.714 140.519 25.6913 140.964C25.6687 141.409 25.846 141.82 26.2231 142.198ZM35.0094 141.526L36.6838 143.2L35.6204 144.264L35.6995 144.343C36.1898 144.139 36.6838 144.06 37.1816 144.105C37.6794 144.15 38.1622 144.407 38.6298 144.875C38.9541 145.199 39.1879 145.553 39.3312 145.938C39.4821 146.33 39.5274 146.745 39.467 147.183C39.4142 147.628 39.2483 148.095 38.9692 148.585C38.6977 149.083 38.2979 149.596 37.77 150.124C37.242 150.652 36.7291 151.052 36.2313 151.323C35.741 151.602 35.2734 151.768 34.8284 151.821C34.3909 151.881 33.9761 151.836 33.5839 151.685C33.1992 151.542 32.8447 151.308 32.5204 150.984C32.0528 150.516 31.7925 150.037 31.7397 149.547C31.6945 149.049 31.7775 148.551 31.9886 148.054L31.9095 147.974L28.5832 151.301L26.9088 149.626L35.0094 141.526ZM33.0974 148.959C33.4745 149.336 33.878 149.513 34.308 149.491C34.7454 149.46 35.1678 149.242 35.5751 148.834L36.4802 147.929C36.8875 147.522 37.1024 147.103 37.1251 146.673C37.1552 146.236 36.9818 145.829 36.6046 145.452C36.3105 145.157 35.9824 144.973 35.6204 144.897C35.2659 144.829 34.934 144.95 34.6247 145.259L32.9051 146.979C32.5958 147.288 32.4751 147.62 32.543 147.974C32.6184 148.337 32.8032 148.665 33.0974 148.959ZM38.5462 157.01C38.1238 156.587 37.9088 156.191 37.9013 155.822C37.9088 155.452 38.0408 155.139 38.2973 154.883L38.6933 154.487C38.9497 154.23 39.2589 154.102 39.621 154.102C39.9981 154.102 40.3979 154.313 40.8202 154.736C41.2426 155.158 41.45 155.554 41.4425 155.924C41.45 156.293 41.3256 156.606 41.0691 156.863L40.6732 157.259C40.4167 157.515 40.0999 157.643 39.7228 157.643C39.3608 157.643 38.9686 157.432 38.5462 157.01ZM45.2621 163.726C44.6135 163.077 44.1458 162.413 43.8592 161.734C43.5801 161.063 43.4896 160.437 43.5877 159.856L45.3979 159.924C45.3752 160.399 45.4431 160.86 45.6015 161.305C45.775 161.75 46.0578 162.168 46.45 162.56C46.7819 162.892 47.0912 163.103 47.3778 163.194C47.6719 163.277 47.9246 163.213 48.1358 163.002C48.3017 162.836 48.3507 162.658 48.2829 162.47C48.2225 162.274 48.0981 162.044 47.9095 161.78L47.1176 160.694C46.8913 160.392 46.7027 160.09 46.5519 159.788C46.4086 159.479 46.3218 159.174 46.2917 158.872C46.2615 158.57 46.2954 158.272 46.3935 157.978C46.4915 157.684 46.6801 157.398 46.9592 157.118C47.5701 156.508 48.2829 156.262 49.0975 156.383C49.912 156.504 50.7417 156.986 51.5865 157.831C52.1597 158.404 52.567 158.97 52.8083 159.528C53.0648 160.086 53.1704 160.629 53.1251 161.157L51.3376 161.271C51.3527 160.909 51.2885 160.528 51.1452 160.128C51.0019 159.728 50.7379 159.336 50.3533 158.951C49.7046 158.303 49.1842 158.174 48.792 158.567C48.6185 158.74 48.5619 158.925 48.6223 159.121C48.6902 159.31 48.8184 159.536 49.0069 159.8L49.7876 160.875C50.0139 161.176 50.1987 161.482 50.342 161.791C50.4928 162.093 50.5833 162.394 50.6135 162.696C50.6512 163.005 50.621 163.307 50.523 163.601C50.4249 163.895 50.2364 164.182 49.9573 164.461C49.3464 165.072 48.626 165.317 47.7964 165.196C46.9742 165.083 46.1295 164.593 45.2621 163.726ZM57.963 159.411L59.6374 161.085L56.0396 164.683L56.1075 164.751C56.3413 164.653 56.5789 164.581 56.8203 164.536C57.0617 164.491 57.303 164.483 57.5444 164.513C57.8008 164.543 58.0497 164.619 58.2911 164.739C58.5475 164.86 58.7927 165.037 59.0265 165.271C59.3055 165.55 59.513 165.856 59.6487 166.188C59.792 166.512 59.8524 166.851 59.8297 167.206C59.8071 167.56 59.7053 167.919 59.5243 168.281C59.3508 168.65 59.0868 169.012 58.7323 169.367L54.9535 173.146L53.2791 171.471L56.8316 167.919C57.5859 167.164 57.6349 166.459 56.9787 165.803C56.8505 165.675 56.7034 165.565 56.5375 165.475C56.3866 165.384 56.2244 165.328 56.051 165.305C55.885 165.275 55.7191 165.283 55.5532 165.328C55.3948 165.381 55.2439 165.479 55.1006 165.622L51.2653 169.457L49.5908 167.783L57.963 159.411ZM58.8976 177.361C58.445 176.909 58.1056 176.433 57.8794 175.936C57.6606 175.43 57.555 174.917 57.5626 174.397C57.5777 173.884 57.7059 173.371 57.9472 172.858C58.1886 172.345 58.5469 171.851 59.022 171.376C59.4972 170.901 59.9913 170.543 60.5041 170.301C61.017 170.06 61.5299 169.932 62.0428 169.917C62.5632 169.909 63.0724 170.019 63.5702 170.245C64.0755 170.464 64.5545 170.799 65.007 171.252C65.4595 171.704 65.7952 172.183 66.0139 172.689C66.2402 173.186 66.3458 173.692 66.3307 174.205C66.3232 174.725 66.1987 175.242 65.9574 175.755C65.716 176.267 65.3577 176.762 64.8825 177.237C64.4074 177.712 63.9133 178.07 63.4005 178.311C62.8876 178.553 62.3709 178.677 61.8505 178.685C61.3376 178.7 60.8285 178.598 60.3231 178.379C59.8253 178.153 59.3501 177.814 58.8976 177.361ZM60.1421 176.117C60.5192 176.494 60.9303 176.671 61.3753 176.648C61.8203 176.626 62.2578 176.399 62.6877 175.97L63.6154 175.042C64.0453 174.612 64.2716 174.174 64.2942 173.729C64.3169 173.284 64.1396 172.873 63.7625 172.496C63.3854 172.119 62.9743 171.942 62.5293 171.965C62.0843 171.987 61.6468 172.213 61.2169 172.643L60.2892 173.571C59.8593 174.001 59.633 174.438 59.6104 174.883C59.5877 175.328 59.765 175.74 60.1421 176.117ZM68.3401 174.856L69.7317 176.248L65.4212 181.396L65.5343 181.509L70.9536 177.47L72.4244 178.941L68.3741 184.349L68.4872 184.462L73.6463 180.163L74.97 181.486L68.4419 186.634L66.4507 184.643L69.9014 180.038L69.7883 179.925L65.1836 183.376L63.1924 181.384L68.3401 174.856Z"
    fill="white" />
</svg>